<?xml version="1.0" standalone="no"?>
<!DOCTYPE svg PUBLIC "-//W3C//DTD SVG 20010904//EN"
 "http://www.w3.org/TR/2001/REC-SVG-20010904/DTD/svg10.dtd">
<svg version="1.0" xmlns="http://www.w3.org/2000/svg"
 width="1024.000000pt" height="1024.000000pt" viewBox="0 0 1024.000000 1024.000000"
 preserveAspectRatio="xMidYMid meet">
<metadata>
Created by potrace 1.14, written by Peter Selinger 2001-2017
</metadata>
<g transform="translate(0.000000,1024.000000) scale(0.100000,-0.100000)"
fill="#000000" stroke="none">
<path d="M5075 10232 c-98 -11 -264 -76 -361 -141 -25 -17 -47 -31 -49 -31 -3
0 -13 -6 -22 -14 -16 -13 -367 -302 -420 -346 -12 -10 -32 -24 -45 -31 -12 -6
-25 -15 -28 -19 -3 -4 -36 -26 -74 -48 -80 -48 -164 -82 -218 -87 -21 -2 -42
-6 -46 -9 -10 -6 -127 -15 -257 -21 -204 -9 -341 -19 -388 -30 -12 -3 -33 -7
-47 -9 -143 -23 -303 -105 -402 -207 -87 -90 -216 -309 -233 -397 -2 -12 -9
-30 -15 -41 -6 -11 -15 -42 -20 -68 -5 -27 -11 -57 -14 -68 -6 -32 -17 -116
-21 -175 -3 -30 -7 -84 -10 -120 -14 -169 -22 -225 -46 -307 -11 -37 -21 -75
-23 -83 -7 -23 -61 -153 -77 -180 -50 -90 -146 -235 -212 -320 -45 -58 -67
-90 -67 -98 0 -6 -4 -12 -8 -14 -10 -4 -89 -127 -122 -190 -14 -27 -28 -48
-32 -48 -5 0 -8 -6 -8 -13 0 -7 -11 -35 -24 -63 -22 -43 -48 -105 -47 -111 0
-2 -6 -18 -14 -36 -29 -70 -48 -176 -50 -287 -1 -63 0 -119 4 -125 3 -5 6 -19
6 -30 0 -11 4 -26 8 -32 5 -7 6 -13 3 -13 -7 0 35 -113 66 -177 56 -116 181
-262 328 -383 73 -61 202 -189 222 -221 21 -32 64 -161 73 -214 11 -66 16
-153 20 -300 2 -77 7 -165 11 -195 3 -30 8 -64 9 -75 6 -44 48 -191 61 -212 8
-13 12 -23 9 -23 -9 0 44 -99 93 -175 62 -97 105 -150 181 -222 l64 -61 -32
-79 c-19 -43 -38 -89 -44 -103 -6 -14 -11 -27 -12 -30 -1 -3 -8 -21 -17 -40
-8 -19 -27 -64 -42 -100 -27 -64 -49 -116 -66 -155 -5 -11 -75 -177 -155 -370
-81 -192 -152 -363 -160 -380 -7 -16 -30 -70 -50 -120 -43 -103 -56 -135 -79
-187 -71 -165 -99 -233 -95 -233 1 0 -4 -11 -11 -25 -8 -14 -15 -27 -15 -30 0
-3 -11 -27 -23 -54 -12 -27 -22 -51 -22 -53 0 -3 -6 -19 -14 -36 -42 -93 -66
-148 -66 -152 0 -7 -79 -193 -106 -251 -13 -28 -24 -55 -24 -61 0 -5 -9 -27
-19 -49 -32 -66 -201 -474 -201 -484 0 -6 -4 -10 -8 -10 -5 0 -9 -6 -10 -12
-2 -24 -27 -88 -34 -88 -4 0 -5 -6 -2 -14 5 -13 54 -13 74 -1 5 3 11 2 13 -2
3 -5 29 -7 59 -6 29 1 280 5 558 8 278 4 586 8 685 9 l180 2 45 -35 c25 -20
47 -38 50 -41 3 -3 64 -52 135 -109 72 -58 137 -111 146 -120 9 -9 29 -25 44
-36 16 -11 33 -25 39 -30 6 -6 56 -47 111 -90 55 -44 102 -82 105 -85 3 -3 77
-64 165 -135 189 -153 175 -142 250 -202 33 -26 69 -56 80 -66 11 -10 44 -37
73 -59 42 -33 55 -39 62 -28 5 8 7 17 4 21 -2 4 0 10 6 14 6 4 8 11 5 16 -4 5
-2 9 4 9 5 0 13 14 16 32 4 18 11 39 16 48 5 8 60 143 122 300 63 157 117 294
122 305 5 11 9 22 10 25 8 25 27 68 35 82 6 10 10 23 10 29 0 6 7 27 16 47 54
124 82 200 76 206 -3 3 -1 6 5 6 6 0 14 12 19 28 11 40 17 55 44 117 10 22 68
168 130 325 62 157 118 299 125 315 7 17 23 57 36 90 13 33 25 62 26 64 5 7
24 -15 26 -30 2 -8 21 -59 44 -114 45 -106 66 -157 68 -165 0 -3 11 -27 23
-54 12 -27 22 -54 22 -60 0 -7 4 -16 8 -22 5 -5 17 -29 26 -54 21 -53 124
-306 137 -335 36 -80 76 -185 71 -185 -4 0 -1 -4 6 -8 7 -5 14 -18 16 -29 3
-11 13 -40 24 -64 11 -24 48 -115 83 -201 35 -87 68 -158 73 -158 4 0 23 12
40 27 18 16 52 44 76 63 24 19 85 69 136 110 50 41 109 89 130 105 21 17 45
37 54 45 9 8 34 28 55 44 22 17 42 33 45 36 4 5 42 36 123 100 11 8 24 20 31
25 6 6 33 28 61 50 27 22 59 47 70 57 11 9 52 42 90 73 39 31 77 62 87 70 9 7
51 42 94 77 43 35 92 75 109 90 16 16 33 28 37 28 4 0 16 9 27 21 22 24 -53
23 736 14 314 -4 635 -8 713 -9 134 -1 167 3 142 19 -6 4 -8 10 -5 15 3 5 1
11 -5 15 -5 3 -10 15 -10 26 0 10 -4 19 -9 19 -5 0 -12 12 -17 28 -10 37 -8
31 -33 87 -25 56 -44 97 -46 105 -1 3 -9 23 -19 45 -10 22 -33 78 -53 124 -19
46 -39 91 -43 100 -5 9 -41 93 -81 186 -39 94 -77 185 -85 203 -8 17 -20 47
-28 65 -7 17 -21 48 -29 67 -9 19 -41 96 -73 170 -31 74 -67 159 -80 188 -13
29 -24 55 -24 57 0 2 -11 28 -24 57 -13 29 -56 130 -96 223 -40 94 -85 198
-101 233 -16 35 -29 67 -29 72 0 5 -9 25 -20 45 -11 19 -19 36 -19 38 1 3 -20
56 -38 97 -40 91 -121 283 -125 296 -2 6 20 36 47 66 67 73 138 181 184 281
50 107 54 118 65 165 3 9 5 17 6 17 3 0 19 81 25 125 6 38 14 189 20 340 5
141 7 155 31 259 29 129 89 217 224 331 124 106 208 185 273 259 34 39 97 136
97 151 0 5 5 10 10 10 6 0 10 6 10 13 0 6 7 25 15 40 12 23 35 92 39 117 1 3
4 10 8 15 10 16 22 121 22 195 0 84 -16 193 -36 250 -3 8 -16 44 -28 80 -28
83 -127 274 -191 367 -27 40 -49 77 -49 83 0 5 -9 15 -20 22 -11 7 -20 16 -20
21 0 10 -82 121 -92 125 -5 2 -8 10 -8 17 0 7 -4 15 -9 17 -20 7 -171 268
-171 295 0 7 -5 13 -11 13 -5 0 -7 5 -4 10 4 6 2 17 -4 24 -13 16 -56 161 -66
221 -12 77 -23 190 -30 305 -3 41 -7 86 -10 100 -3 14 -6 40 -7 58 -1 18 -5
35 -10 38 -4 3 -6 9 -3 14 5 8 -31 155 -43 175 -4 6 -7 16 -8 24 -4 23 -88
191 -96 191 -5 0 -8 4 -8 9 0 19 -79 128 -127 175 -52 52 -125 106 -142 106
-6 0 -11 3 -11 8 0 15 -140 67 -235 87 -38 9 -56 11 -130 19 -33 3 -82 9 -110
12 -27 3 -59 5 -70 4 -31 -2 -34 -2 -150 4 -109 6 -176 12 -225 21 -14 2 -41
7 -62 9 -92 14 -233 88 -378 200 -63 49 -224 182 -265 219 -111 102 -337 240
-445 272 -80 23 -254 37 -345 27z"/>
</g>
</svg>
